<mxfile host="app.diagrams.net" agent="Mozilla/5.0 (Windows NT 10.0; Win64; x64) AppleWebKit/537.36 (KHTML, like Gecko) Chrome/138.0.0.0 Safari/537.36" version="28.0.4">
  <diagram id="prtHgNgQTEPvFCAcTncT" name="Page-1">
    <mxGraphModel dx="1401" dy="586" grid="1" gridSize="10" guides="1" tooltips="1" connect="1" arrows="1" fold="1" page="1" pageScale="1" pageWidth="827" pageHeight="1169" math="0" shadow="0">
      <root>
        <mxCell id="0" />
        <mxCell id="1" parent="0" />
        <mxCell id="dNxyNK7c78bLwvsdeMH5-19" value="RemoPro" style="swimlane;html=1;childLayout=stackLayout;resizeParent=1;resizeParentMax=0;horizontal=0;startSize=20;horizontalStack=0;" parent="1" vertex="1">
          <mxGeometry x="120" y="120" width="1320" height="370" as="geometry" />
        </mxCell>
        <mxCell id="dNxyNK7c78bLwvsdeMH5-20" value="Клиент" style="swimlane;html=1;startSize=20;horizontal=0;" parent="dNxyNK7c78bLwvsdeMH5-19" vertex="1">
          <mxGeometry x="20" width="1300" height="200" as="geometry" />
        </mxCell>
        <mxCell id="dNxyNK7c78bLwvsdeMH5-25" value="" style="edgeStyle=orthogonalEdgeStyle;rounded=0;orthogonalLoop=1;jettySize=auto;html=1;" parent="dNxyNK7c78bLwvsdeMH5-20" source="dNxyNK7c78bLwvsdeMH5-23" target="dNxyNK7c78bLwvsdeMH5-24" edge="1">
          <mxGeometry relative="1" as="geometry" />
        </mxCell>
        <mxCell id="dNxyNK7c78bLwvsdeMH5-23" value="&lt;font style=&quot;font-size: 8px;&quot;&gt;Решение сделать ремонт&lt;/font&gt;" style="ellipse;whiteSpace=wrap;html=1;" parent="dNxyNK7c78bLwvsdeMH5-20" vertex="1">
          <mxGeometry x="40" y="43.75" width="80" height="50" as="geometry" />
        </mxCell>
        <mxCell id="dNxyNK7c78bLwvsdeMH5-24" value="&lt;font style=&quot;font-size: 10px;&quot;&gt;Создание заявки&lt;/font&gt;" style="rounded=0;whiteSpace=wrap;html=1;fontFamily=Helvetica;fontSize=12;fontColor=#000000;align=center;" parent="dNxyNK7c78bLwvsdeMH5-20" vertex="1">
          <mxGeometry x="180" y="51.25" width="90" height="35" as="geometry" />
        </mxCell>
        <mxCell id="dNxyNK7c78bLwvsdeMH5-30" value="&lt;font style=&quot;font-size: 10px;&quot;&gt;Направить на рассмотрение&lt;/font&gt;&lt;div&gt;&lt;font style=&quot;font-size: 10px;&quot;&gt;подрядчику&lt;/font&gt;&lt;/div&gt;" style="rounded=0;whiteSpace=wrap;html=1;fontFamily=Helvetica;fontSize=12;fontColor=#000000;align=center;" parent="dNxyNK7c78bLwvsdeMH5-20" vertex="1">
          <mxGeometry x="330" y="42.5" width="90" height="52.5" as="geometry" />
        </mxCell>
        <mxCell id="TaahvNpc3IDJhIJnkjIa-6" value="" style="edgeStyle=orthogonalEdgeStyle;rounded=0;orthogonalLoop=1;jettySize=auto;html=1;entryX=0;entryY=0.5;entryDx=0;entryDy=0;" edge="1" parent="dNxyNK7c78bLwvsdeMH5-20" source="dNxyNK7c78bLwvsdeMH5-24" target="dNxyNK7c78bLwvsdeMH5-30">
          <mxGeometry relative="1" as="geometry" />
        </mxCell>
        <mxCell id="TaahvNpc3IDJhIJnkjIa-17" value="&lt;font style=&quot;font-size: 10px;&quot;&gt;Согласовались&lt;/font&gt;" style="rhombus;whiteSpace=wrap;html=1;" vertex="1" parent="dNxyNK7c78bLwvsdeMH5-20">
          <mxGeometry x="510" y="80" width="90" height="86.25" as="geometry" />
        </mxCell>
        <mxCell id="TaahvNpc3IDJhIJnkjIa-38" style="edgeStyle=orthogonalEdgeStyle;rounded=0;orthogonalLoop=1;jettySize=auto;html=1;exitX=0.5;exitY=0;exitDx=0;exitDy=0;" edge="1" parent="dNxyNK7c78bLwvsdeMH5-20" source="TaahvNpc3IDJhIJnkjIa-30" target="TaahvNpc3IDJhIJnkjIa-36">
          <mxGeometry relative="1" as="geometry">
            <Array as="points">
              <mxPoint x="860" y="80" />
            </Array>
          </mxGeometry>
        </mxCell>
        <mxCell id="TaahvNpc3IDJhIJnkjIa-30" value="&lt;font style=&quot;font-size: 10px;&quot;&gt;Подтверждает выполнение&lt;/font&gt;" style="rhombus;whiteSpace=wrap;html=1;" vertex="1" parent="dNxyNK7c78bLwvsdeMH5-20">
          <mxGeometry x="800" y="86.25" width="120" height="86.87" as="geometry" />
        </mxCell>
        <mxCell id="TaahvNpc3IDJhIJnkjIa-41" style="edgeStyle=orthogonalEdgeStyle;rounded=0;orthogonalLoop=1;jettySize=auto;html=1;exitX=1;exitY=0.5;exitDx=0;exitDy=0;entryX=0.5;entryY=0;entryDx=0;entryDy=0;" edge="1" parent="dNxyNK7c78bLwvsdeMH5-20" source="TaahvNpc3IDJhIJnkjIa-36" target="TaahvNpc3IDJhIJnkjIa-39">
          <mxGeometry relative="1" as="geometry" />
        </mxCell>
        <mxCell id="TaahvNpc3IDJhIJnkjIa-36" value="&lt;font style=&quot;font-size: 10px;&quot;&gt;Направить в отзывы&lt;/font&gt;" style="rounded=0;whiteSpace=wrap;html=1;" vertex="1" parent="dNxyNK7c78bLwvsdeMH5-20">
          <mxGeometry x="1020" y="51.25" width="120" height="60" as="geometry" />
        </mxCell>
        <mxCell id="TaahvNpc3IDJhIJnkjIa-39" value="&lt;font style=&quot;font-size: 10px;&quot;&gt;Заявка завершена&lt;/font&gt;" style="ellipse;whiteSpace=wrap;html=1;aspect=fixed;" vertex="1" parent="dNxyNK7c78bLwvsdeMH5-20">
          <mxGeometry x="1210" y="111.25" width="76.25" height="76.25" as="geometry" />
        </mxCell>
        <mxCell id="dNxyNK7c78bLwvsdeMH5-21" value="Подрядчик" style="swimlane;html=1;startSize=20;horizontal=0;fillColor=#C8C8C8;" parent="dNxyNK7c78bLwvsdeMH5-19" vertex="1">
          <mxGeometry x="20" y="200" width="1300" height="170" as="geometry" />
        </mxCell>
        <mxCell id="TaahvNpc3IDJhIJnkjIa-16" value="" style="edgeStyle=orthogonalEdgeStyle;rounded=0;orthogonalLoop=1;jettySize=auto;html=1;" edge="1" parent="dNxyNK7c78bLwvsdeMH5-21" source="TaahvNpc3IDJhIJnkjIa-9" target="TaahvNpc3IDJhIJnkjIa-15">
          <mxGeometry relative="1" as="geometry" />
        </mxCell>
        <mxCell id="TaahvNpc3IDJhIJnkjIa-9" value="&lt;font style=&quot;font-size: 10px;&quot;&gt;Принимает заявку&lt;/font&gt;" style="rhombus;whiteSpace=wrap;html=1;" vertex="1" parent="dNxyNK7c78bLwvsdeMH5-21">
          <mxGeometry x="335" y="20" width="80" height="70" as="geometry" />
        </mxCell>
        <mxCell id="TaahvNpc3IDJhIJnkjIa-15" value="&lt;font style=&quot;font-size: 10px;&quot;&gt;Направить на согласование&lt;/font&gt;" style="rounded=0;whiteSpace=wrap;html=1;" vertex="1" parent="dNxyNK7c78bLwvsdeMH5-21">
          <mxGeometry x="500" y="30" width="110" height="50" as="geometry" />
        </mxCell>
        <mxCell id="TaahvNpc3IDJhIJnkjIa-22" value="&lt;font style=&quot;font-size: 10px;&quot;&gt;&amp;nbsp;Направить в проекты&lt;/font&gt;" style="rounded=0;whiteSpace=wrap;html=1;" vertex="1" parent="dNxyNK7c78bLwvsdeMH5-21">
          <mxGeometry x="660" y="30" width="110" height="50" as="geometry" />
        </mxCell>
        <mxCell id="TaahvNpc3IDJhIJnkjIa-10" value="" style="edgeStyle=orthogonalEdgeStyle;rounded=0;orthogonalLoop=1;jettySize=auto;html=1;" edge="1" parent="dNxyNK7c78bLwvsdeMH5-19" source="dNxyNK7c78bLwvsdeMH5-30" target="TaahvNpc3IDJhIJnkjIa-9">
          <mxGeometry relative="1" as="geometry" />
        </mxCell>
        <mxCell id="TaahvNpc3IDJhIJnkjIa-11" style="edgeStyle=orthogonalEdgeStyle;rounded=0;orthogonalLoop=1;jettySize=auto;html=1;exitX=0;exitY=0.5;exitDx=0;exitDy=0;entryX=0.5;entryY=1;entryDx=0;entryDy=0;" edge="1" parent="dNxyNK7c78bLwvsdeMH5-19" source="TaahvNpc3IDJhIJnkjIa-9" target="dNxyNK7c78bLwvsdeMH5-23">
          <mxGeometry relative="1" as="geometry" />
        </mxCell>
        <mxCell id="TaahvNpc3IDJhIJnkjIa-12" value="нет" style="edgeLabel;html=1;align=center;verticalAlign=middle;resizable=0;points=[];" vertex="1" connectable="0" parent="TaahvNpc3IDJhIJnkjIa-11">
          <mxGeometry x="-0.7305" relative="1" as="geometry">
            <mxPoint as="offset" />
          </mxGeometry>
        </mxCell>
        <mxCell id="TaahvNpc3IDJhIJnkjIa-18" value="" style="edgeStyle=orthogonalEdgeStyle;rounded=0;orthogonalLoop=1;jettySize=auto;html=1;" edge="1" parent="dNxyNK7c78bLwvsdeMH5-19" source="TaahvNpc3IDJhIJnkjIa-15" target="TaahvNpc3IDJhIJnkjIa-17">
          <mxGeometry relative="1" as="geometry" />
        </mxCell>
        <mxCell id="TaahvNpc3IDJhIJnkjIa-24" style="edgeStyle=orthogonalEdgeStyle;rounded=0;orthogonalLoop=1;jettySize=auto;html=1;exitX=1;exitY=0.5;exitDx=0;exitDy=0;entryX=0.5;entryY=0;entryDx=0;entryDy=0;" edge="1" parent="dNxyNK7c78bLwvsdeMH5-19" source="TaahvNpc3IDJhIJnkjIa-17" target="TaahvNpc3IDJhIJnkjIa-22">
          <mxGeometry relative="1" as="geometry" />
        </mxCell>
        <mxCell id="TaahvNpc3IDJhIJnkjIa-27" value="да" style="edgeLabel;html=1;align=center;verticalAlign=middle;resizable=0;points=[];" vertex="1" connectable="0" parent="TaahvNpc3IDJhIJnkjIa-24">
          <mxGeometry x="-0.757" y="1" relative="1" as="geometry">
            <mxPoint as="offset" />
          </mxGeometry>
        </mxCell>
        <mxCell id="TaahvNpc3IDJhIJnkjIa-31" style="edgeStyle=orthogonalEdgeStyle;rounded=0;orthogonalLoop=1;jettySize=auto;html=1;exitX=1;exitY=0.5;exitDx=0;exitDy=0;entryX=0.5;entryY=1;entryDx=0;entryDy=0;" edge="1" parent="dNxyNK7c78bLwvsdeMH5-19" source="TaahvNpc3IDJhIJnkjIa-22" target="TaahvNpc3IDJhIJnkjIa-30">
          <mxGeometry relative="1" as="geometry" />
        </mxCell>
        <mxCell id="TaahvNpc3IDJhIJnkjIa-32" style="edgeStyle=orthogonalEdgeStyle;rounded=0;orthogonalLoop=1;jettySize=auto;html=1;exitX=1;exitY=0.5;exitDx=0;exitDy=0;entryX=0.5;entryY=1;entryDx=0;entryDy=0;" edge="1" parent="dNxyNK7c78bLwvsdeMH5-19" source="TaahvNpc3IDJhIJnkjIa-30" target="TaahvNpc3IDJhIJnkjIa-9">
          <mxGeometry relative="1" as="geometry">
            <Array as="points">
              <mxPoint x="940" y="320" />
              <mxPoint x="395" y="320" />
            </Array>
          </mxGeometry>
        </mxCell>
        <mxCell id="TaahvNpc3IDJhIJnkjIa-35" value="нет" style="edgeLabel;html=1;align=center;verticalAlign=middle;resizable=0;points=[];" vertex="1" connectable="0" parent="TaahvNpc3IDJhIJnkjIa-32">
          <mxGeometry x="-0.9108" y="-2" relative="1" as="geometry">
            <mxPoint as="offset" />
          </mxGeometry>
        </mxCell>
        <mxCell id="TaahvNpc3IDJhIJnkjIa-1" value="&lt;font style=&quot;font-size: 10px;&quot;&gt;1. Название проекта&lt;br&gt;2. Описание&lt;br&gt;3,Категории&lt;br&gt;4. Фотографии&lt;/font&gt;" style="shape=card;whiteSpace=wrap;html=1;" vertex="1" parent="1">
          <mxGeometry x="250" y="80" width="140" height="70" as="geometry" />
        </mxCell>
        <mxCell id="TaahvNpc3IDJhIJnkjIa-2" value="remo" style="shape=datastore;whiteSpace=wrap;html=1;" vertex="1" parent="1">
          <mxGeometry x="450" y="90" width="60" height="60" as="geometry" />
        </mxCell>
        <mxCell id="TaahvNpc3IDJhIJnkjIa-8" value="" style="edgeStyle=orthogonalEdgeStyle;rounded=0;orthogonalLoop=1;jettySize=auto;html=1;entryX=0;entryY=0.7;entryDx=0;entryDy=0;" edge="1" parent="1" source="dNxyNK7c78bLwvsdeMH5-24" target="TaahvNpc3IDJhIJnkjIa-2">
          <mxGeometry relative="1" as="geometry">
            <Array as="points">
              <mxPoint x="400" y="132" />
            </Array>
          </mxGeometry>
        </mxCell>
        <mxCell id="TaahvNpc3IDJhIJnkjIa-20" style="edgeStyle=orthogonalEdgeStyle;rounded=0;orthogonalLoop=1;jettySize=auto;html=1;exitX=0.5;exitY=0;exitDx=0;exitDy=0;entryX=1;entryY=0.7;entryDx=0;entryDy=0;" edge="1" parent="1" source="TaahvNpc3IDJhIJnkjIa-17" target="TaahvNpc3IDJhIJnkjIa-2">
          <mxGeometry relative="1" as="geometry" />
        </mxCell>
        <mxCell id="TaahvNpc3IDJhIJnkjIa-21" value="нет" style="edgeLabel;html=1;align=center;verticalAlign=middle;resizable=0;points=[];" vertex="1" connectable="0" parent="TaahvNpc3IDJhIJnkjIa-20">
          <mxGeometry x="-0.8593" relative="1" as="geometry">
            <mxPoint as="offset" />
          </mxGeometry>
        </mxCell>
        <mxCell id="TaahvNpc3IDJhIJnkjIa-28" style="edgeStyle=orthogonalEdgeStyle;rounded=0;orthogonalLoop=1;jettySize=auto;html=1;exitX=0.5;exitY=0;exitDx=0;exitDy=0;entryX=1;entryY=0.167;entryDx=0;entryDy=0;entryPerimeter=0;" edge="1" parent="1" source="TaahvNpc3IDJhIJnkjIa-22" target="TaahvNpc3IDJhIJnkjIa-2">
          <mxGeometry relative="1" as="geometry" />
        </mxCell>
        <mxCell id="TaahvNpc3IDJhIJnkjIa-43" value="Примечания" style="swimlane;whiteSpace=wrap;html=1;fillColor=#D4E1F5;strokeColor=#6c8ebf;" vertex="1" parent="1">
          <mxGeometry x="1560" y="120" width="200" height="370" as="geometry" />
        </mxCell>
        <mxCell id="TaahvNpc3IDJhIJnkjIa-44" value="&lt;div style=&quot;line-height: 160%;&quot;&gt;1. После заполнения данных о проекте создается заявка, которая отправляется в базу данных &quot;remo&quot;&amp;nbsp;&amp;nbsp;&lt;/div&gt;&lt;div style=&quot;line-height: 160%;&quot;&gt;&lt;div&gt;2. В случае успешного согласования заявки с вкладки&amp;nbsp;&lt;span style=&quot;background-color: transparent; color: light-dark(rgb(0, 0, 0), rgb(255, 255, 255));&quot;&gt;&quot;Мои заявки&quot; отправляется в &lt;/span&gt;&lt;span style=&quot;background-color: transparent; color: light-dark(rgb(0, 0, 0), rgb(255, 255, 255));&quot;&gt;&quot;Проекты&quot;&lt;/span&gt;&lt;/div&gt;&lt;div&gt;&lt;span style=&quot;background-color: transparent; color: light-dark(rgb(0, 0, 0), rgb(255, 255, 255));&quot;&gt;3. В случае когда клиент не подтвердил окончание работы подрядчиком проект опять отправляется на согласование для обсуждения&lt;/span&gt;&lt;/div&gt;&lt;/div&gt;" style="text;html=1;align=center;verticalAlign=middle;whiteSpace=wrap;rounded=0;" vertex="1" parent="TaahvNpc3IDJhIJnkjIa-43">
          <mxGeometry x="10" y="-20" width="180" height="370" as="geometry" />
        </mxCell>
      </root>
    </mxGraphModel>
  </diagram>
</mxfile>
